<svg width="307" height="272" viewBox="0 0 307 272" fill="none" xmlns="http://www.w3.org/2000/svg">
<g opacity="0.36">
<path d="M-195.228 0.438843L306.187 0.438843" stroke="black" stroke-width="0.877622"/>
<path d="M-195.228 39.0542L306.187 39.0542" stroke="black" stroke-width="0.877622"/>
<path d="M-195.228 77.6696L306.187 77.6696" stroke="black" stroke-width="0.877622"/>
<path d="M-195.228 116.285L306.187 116.285" stroke="black" stroke-width="0.877622"/>
<path d="M-195.228 154.9L306.187 154.9" stroke="black" stroke-width="0.877622"/>
<path d="M-195.228 193.516L306.187 193.516" stroke="black" stroke-width="0.877622"/>
<path d="M-195.228 232.131L306.187 232.131" stroke="black" stroke-width="0.877622"/>
<path d="M-195.228 270.746H306.187" stroke="black" stroke-width="0.877622"/>
<path d="M35.6924 0.438843L35.6924 270.747" stroke="black" stroke-width="0.877622"/>
<path d="M74.3076 0.438843L74.3076 270.747" stroke="black" stroke-width="0.877622"/>
<path d="M112.923 0.438843L112.923 270.747" stroke="black" stroke-width="0.877622"/>
<path d="M151.538 0.438843L151.538 270.747" stroke="black" stroke-width="0.877622"/>
<path d="M190.154 0.438843L190.154 270.747" stroke="black" stroke-width="0.877622"/>
<path d="M228.77 0.438843L228.77 270.747" stroke="black" stroke-width="0.877622"/>
<path d="M267.385 0.438843V270.747" stroke="black" stroke-width="0.877622"/>
<path d="M306 0.438843V270.747" stroke="black" stroke-width="0.877622"/>
</g>
</svg>
